<?xml version="1.0" standalone="no"?>
<!DOCTYPE svg PUBLIC "-//W3C//DTD SVG 20010904//EN"
 "http://www.w3.org/TR/2001/REC-SVG-20010904/DTD/svg10.dtd">
<svg version="1.0" xmlns="http://www.w3.org/2000/svg"
 width="400.000000pt" height="400.000000pt" viewBox="0 0 400.000000 400.000000"
 preserveAspectRatio="xMidYMid meet">
<metadata>
Created by potrace 1.11, written by Peter Selinger 2001-2013
</metadata>
<g transform="translate(0.000000,400.000000) scale(0.100000,-0.100000)"
fill="#000000" stroke="none">
<path d="M0 2000 l0 -1000 2000 0 2000 0 0 1000 0 1000 -2000 0 -2000 0 0
-1000z m3616 666 c85 -4 210 -29 226 -45 7 -6 -68 -261 -76 -261 -1 0 -28 9
-60 20 -124 42 -309 48 -399 13 -46 -19 -77 -56 -77 -95 0 -61 33 -88 185
-152 129 -54 186 -89 237 -144 66 -70 81 -119 76 -244 -3 -88 -7 -112 -32
-161 -58 -119 -181 -204 -351 -244 -61 -14 -119 -18 -245 -18 -143 1 -180 4
-279 28 -63 14 -116 29 -119 32 -5 5 42 172 67 238 l10 26 43 -19 c78 -34 202
-53 312 -48 166 8 236 52 236 147 0 64 -27 92 -138 142 -213 98 -250 119 -291
166 -114 129 -87 367 57 493 51 45 141 91 217 110 53 14 217 27 275 23 19 -1
76 -4 126 -7z m-2782 -33 c3 -10 59 -202 126 -428 138 -468 129 -440 136 -432
3 3 45 200 93 439 l87 433 167 3 168 2 -6 -23 c-4 -13 -66 -304 -139 -648
l-132 -624 -219 0 -218 0 -119 390 c-65 215 -125 415 -134 445 -10 32 -19 49
-22 40 -3 -8 -44 -208 -92 -445 l-86 -430 -154 -3 c-85 -1 -159 -1 -165 2 -8
3 32 208 121 628 73 342 136 633 139 646 5 22 6 22 225 22 200 0 219 -2 224
-17z m1205 -215 c-27 -128 -49 -239 -49 -245 0 -10 47 -13 203 -13 l204 0 49
243 49 242 178 3 c167 2 178 1 173 -15 -3 -10 -62 -292 -131 -628 -69 -335
-130 -620 -135 -632 -9 -23 -13 -23 -180 -23 -93 0 -170 3 -170 8 0 4 24 126
54 272 30 145 52 268 50 272 -3 4 -94 8 -203 8 l-198 0 -21 -97 c-11 -54 -37
-180 -58 -280 l-38 -183 -173 0 c-95 0 -173 3 -174 8 0 4 60 296 133 649 l133
643 176 0 176 0 -48 -232z"/>
</g>
</svg>
